<?xml version="1.0" encoding="utf-8"?>
<!-- Generator: Adobe Illustrator 24.1.0, SVG Export Plug-In . SVG Version: 6.00 Build 0)  -->
<svg version="1.1" id="Logo_1_" xmlns="http://www.w3.org/2000/svg" xmlns:xlink="http://www.w3.org/1999/xlink" x="0px" y="0px"
	 viewBox="0 0 80 80" style="enable-background:new 0 0 80 80;" xml:space="preserve">
<style type="text/css">
	.st0{fill:#FFFFFF;}
	.st1{fill:#FF5100;}
</style>
<g id="Layer_2_1_">
	<g id="Logo">
		<rect class="st0" width="80" height="80"/>
		<g id="Mark">
			<path class="st1" d="M59.8,44.8c-0.4,4.9-4.6,8.7-9.5,8.7H45L35,60v-6.5L45,47h5.2c1.5,0,2.8-1.1,3-2.7c0.3-5,0.3-10-0.1-15
				c-0.1-1.4-1.2-2.5-2.6-2.5c-3.4-0.1-7-0.3-10.6-0.3s-7.2,0.1-10.6,0.4c-1.4,0.1-2.5,1.2-2.6,2.5c-0.4,5-0.4,10-0.1,15
				c0.2,1.6,1.5,2.7,3.1,2.6H35v6.5h-5.2c-4.9,0.1-9.1-3.7-9.5-8.7c-0.3-5.3-0.3-10.7,0.1-16c0.4-4.6,4.1-8.2,8.6-8.5
				c3.5-0.2,7.2-0.4,11-0.4s7.5,0.1,11,0.4c4.6,0.3,8.3,3.9,8.7,8.5C60,34.2,60.1,39.5,59.8,44.8z"/>
		</g>
	</g>
</g>
</svg>
